<svg width="266" height="250" viewBox="0 0 266 250" fill="none" xmlns="http://www.w3.org/2000/svg">
<g clip-path="url(#clip0_16_2)">
<path d="M125.03 108.713C123.691 105.753 124.195 102.655 126.156 101.793C128.117 100.93 130.792 102.63 132.132 105.591C132.684 106.766 132.935 108.058 132.863 109.358L138.374 121.968L132.159 124.463L127.386 111.766C126.357 110.95 125.549 109.903 125.03 108.713Z" fill="#FFAFAF"/>
<path d="M163.116 114.067C166.476 117.235 166.265 122.641 162.669 125.538L145.06 139.726C143.138 141.275 140.286 140.727 139.074 138.578C134.446 131.086 133.574 130.675 130.884 122.996L138.469 120.343L142.745 125.698L152.082 114.684C154.904 111.355 159.941 111.073 163.116 114.067Z" fill="#099773"/>
<path d="M95.1273 94.9095V89.3266H39.8058V94.9095H95.1273Z" fill="#DFDFDF"/>
<path d="M235.208 94.9095V89.3266H179.886V94.9095H235.208Z" fill="#DFDFDF"/>
<path d="M70.4518 70.0441H60.9937C57.3256 70.0441 54.352 73.0177 54.352 76.6858V111.614C54.352 115.283 57.3256 118.256 60.9937 118.256H70.4518C74.1199 118.256 77.0935 115.283 77.0935 111.614V76.6858C77.0935 73.0177 74.1199 70.0441 70.4518 70.0441Z" fill="#3F3D56"/>
<path d="M219.637 70.0441H210.179C206.51 70.0441 203.537 73.0177 203.537 76.6858V111.614C203.537 115.283 206.51 118.256 210.179 118.256H219.637C223.305 118.256 226.278 115.283 226.278 111.614V76.6858C226.278 73.0177 223.305 70.0441 219.637 70.0441Z" fill="#3F3D56"/>
<path d="M213.642 106.431H69.1966C64.1748 106.431 59.8778 102.844 58.9795 97.9038L53.4555 67.5221C51.0532 54.3093 56.0308 40.8478 66.4483 32.377L77.3406 8.94206C79.8654 3.50984 85.3675 0 91.3577 0H172.724C177.05 0 181.206 1.82999 184.126 5.02092L204.141 26.8888C218.784 36.7561 227.091 53.8216 225.824 71.4343L224 96.7912C223.611 102.196 219.061 106.431 213.642 106.431Z" fill="#DFDFDF"/>
<path d="M188.99 30.2463H79.8601C77.9648 30.2463 76.2159 29.298 75.1817 27.7101C74.1476 26.1217 73.9878 24.1385 74.7544 22.4053L80.5066 9.40044C81.382 7.42121 83.3456 6.11668 85.5088 6.07715L178.539 6.19041C180.31 6.17886 182.002 6.97615 183.076 8.37929L193.424 21.2709C194.724 22.9703 194.943 25.2174 193.996 27.1362C193.048 29.0546 191.13 30.2463 188.99 30.2463Z" fill="white"/>
<path d="M205.356 64.5861C210.631 64.5861 214.908 60.3098 214.908 55.0346C214.908 49.7595 210.631 45.4832 205.356 45.4832C200.081 45.4832 195.805 49.7595 195.805 55.0346C195.805 60.3098 200.081 64.5861 205.356 64.5861Z" fill="white"/>
<path d="M79.8226 64.5861C85.0977 64.5861 89.374 60.3098 89.374 55.0346C89.374 49.7595 85.0977 45.4832 79.8226 45.4832C74.5474 45.4832 70.2711 49.7595 70.2711 55.0346C70.2711 60.3098 74.5474 64.5861 79.8226 64.5861Z" fill="white"/>
<path d="M196.032 90.7389H91.8756V90.5115C91.8756 85.1193 96.2623 80.7326 101.654 80.7326H186.253C191.645 80.7326 196.032 85.1193 196.032 90.5115V90.7389Z" fill="#3F3D56"/>
<path d="M67.9792 34.3802C67.4155 34.3802 66.8507 34.2007 66.3766 33.8383L62.563 30.9228C62.1844 30.6332 61.7132 30.4737 61.2363 30.4737H52.9082C51.9553 30.4737 51.1014 29.9816 50.624 29.1567C50.1467 28.3324 50.1449 27.3467 50.6193 26.5206L52.6523 22.9787C53.0584 22.2712 53.7837 21.7844 54.5925 21.6764L65.0121 20.2871C66.3107 20.1147 67.5198 20.8996 67.8914 22.1539L70.5102 30.992C70.7985 31.9652 70.4962 33.0312 69.7397 33.7086C69.2413 34.1546 68.611 34.3802 67.9792 34.3802Z" fill="#DFDFDF"/>
<path d="M203.1 32.5609C202.468 32.5609 201.838 32.3352 201.339 31.8893C200.583 31.2119 200.28 30.1459 200.569 29.1727L203.187 20.3346C203.559 19.0794 204.77 18.2919 206.067 18.4682L216.486 19.8571C217.295 19.965 218.02 20.4519 218.427 21.1594L220.46 24.7013C220.934 25.5274 220.932 26.513 220.455 27.3374C219.977 28.1622 219.124 28.6544 218.171 28.6544H209.843C209.366 28.6544 208.894 28.8138 208.516 29.1034L204.702 32.019C204.228 32.3814 203.663 32.5609 203.1 32.5609Z" fill="#DFDFDF"/>
<path d="M45.3887 17.2563H39.8058V246.156H45.3887V17.2563Z" fill="#DFDFDF"/>
<path d="M238.253 17.2563H232.67V246.156H238.253V17.2563Z" fill="#DFDFDF"/>
<path d="M0 246.378C0 246.552 0.13973 246.692 0.313734 246.692H265.153C265.327 246.692 265.467 246.552 265.467 246.378C265.467 246.204 265.327 246.065 265.153 246.065H0.313734C0.13973 246.065 0 246.204 0 246.378Z" fill="#3F3D56"/>
<path d="M174.867 229.064V239.432L182.706 239.685L182.38 229.064H174.867Z" fill="#FFAFAF"/>
<path d="M173.316 234.833C173.21 234.833 173.106 234.846 173.005 234.875C171.591 235.279 163.401 242.591 160.925 244.822C160.619 245.098 160.457 245.491 160.479 245.902C160.501 246.311 160.705 246.682 161.037 246.922C162.915 248.274 166.762 250.414 171.43 249.549C173.578 249.151 175.745 248.901 177.656 248.681C181.749 248.208 184.982 247.835 184.982 246.386C184.982 243.927 184.306 237.448 183.458 237.176C183.381 237.153 183.291 237.212 183.189 237.356C181.89 239.173 177.431 238.206 177.242 238.164L177.192 238.153L177.164 238.111C177.141 238.076 174.958 234.833 173.316 234.833Z" fill="#2F2E41"/>
<path d="M160.2 229.064V239.432L168.039 239.685L167.713 229.064H160.2Z" fill="#FFAFAF"/>
<path d="M157.039 154.844L152.867 158.005L152.108 193.661L159.189 232.604L168.419 232.983L168.672 195.81L180.557 161.924L178.155 153.959L157.039 154.844Z" fill="#2F2E41"/>
<path d="M176.511 160.913L180.557 161.924L183.465 232.604L172.971 231.719L166.016 181.775L176.511 160.913Z" fill="#2F2E41"/>
<path d="M154.603 250C151.006 250 148.083 248.41 146.522 247.338C146.05 247.014 145.758 246.5 145.721 245.927C145.683 245.349 145.909 244.796 146.339 244.409C150.213 240.923 156.916 235.018 158.269 234.632C160.022 234.129 162.376 237.483 162.679 237.928C163.169 238.028 167.183 238.795 168.316 237.209C168.532 236.906 168.735 236.893 168.868 236.935C170.078 237.323 170.568 245.116 170.568 246.386C170.568 248.06 167.402 248.426 163.019 248.932C161.111 249.152 158.948 249.402 156.809 249.798C156.051 249.938 155.314 250 154.603 250Z" fill="#2F2E41"/>
<path d="M165.709 108.661L168.59 114.464L157.703 119.721L157.837 110.419L165.709 108.661Z" fill="#FFAFAF"/>
<path d="M157.742 113.05C163.152 113.05 167.538 108.665 167.538 103.255C167.538 97.8449 163.152 93.4592 157.742 93.4592C152.332 93.4592 147.947 97.8449 147.947 103.255C147.947 108.665 152.332 113.05 157.742 113.05Z" fill="#FFAFAF"/>
<path d="M157.676 117.459L167.72 111.524C175.087 116.69 181.221 117.899 181.417 126.894L180.059 148.352L180.138 157.593C180.172 161.473 177.036 164.635 173.157 164.635H158.814C155.019 164.635 152.191 161.134 152.99 157.423L155.698 144.852L152.806 120.35L157.676 117.459Z" fill="#099773"/>
<path d="M167.816 108.183L166.005 109.481C166.005 109.481 165.472 103.826 164.736 103.575C164.001 103.324 163.009 104.627 163.009 104.627L162.284 106.75L159.889 105.752C159.889 105.752 157.115 104.258 156.134 103.923C155.154 103.589 155.302 100.748 155.302 100.748C155.302 100.748 143.533 102.359 145.301 95.574C145.301 95.574 145.91 90.5825 147.213 91.5746C148.517 92.5667 148.534 90.1098 148.534 90.1098L151.487 89.4757C151.487 89.4757 155.539 84.0173 163.532 88.6607C171.525 93.3041 167.816 108.183 167.816 108.183Z" fill="#2F2E41"/>
<path d="M147.373 129.866L144.727 129.463C143.988 129.35 143.475 128.654 143.588 127.915L143.911 125.792C142.951 126.385 142.246 127.379 142.062 128.582C141.78 130.439 142.829 132.188 144.494 132.869L142.178 148.067C142.172 148.106 142.174 148.143 142.173 148.181C140.375 148.33 138.847 149.689 138.563 151.55C138.397 152.641 138.69 153.696 139.297 154.519L139.589 152.607C139.701 151.868 140.398 151.355 141.137 151.468L143.783 151.871C144.522 151.983 145.034 152.68 144.922 153.419L144.598 155.542C145.559 154.948 146.264 153.955 146.447 152.751C146.731 150.89 145.676 149.138 144.005 148.46C144.015 148.424 144.028 148.388 144.033 148.35L146.349 133.152C148.141 132.998 149.663 131.64 149.946 129.784C150.112 128.693 149.819 127.638 149.212 126.815L148.921 128.727C148.808 129.466 148.112 129.979 147.373 129.866Z" fill="#3F3D56"/>
<path d="M142.444 143.09C139.268 142.406 137.078 140.158 137.551 138.068C138.025 135.979 140.983 134.84 144.159 135.525C145.432 135.78 146.62 136.347 147.622 137.177L161.037 140.25L159.345 146.73L146.3 143.013C145.031 143.355 143.709 143.381 142.444 143.09Z" fill="#FFAFAF"/>
<path d="M169.405 115.662C173.95 114.846 178.17 118.231 178.359 122.845L179.288 145.44C179.389 147.906 177.253 149.873 174.804 149.569C166.029 148.832 166.645 149.73 158.873 147.324L159.394 139.065L166.636 138.956L163.337 124.898C162.339 120.649 165.11 116.433 169.405 115.662Z" fill="#099773"/>
</g>
<defs>
<clipPath id="clip0_16_2">
<rect width="265.467" height="250" fill="white"/>
</clipPath>
</defs>
</svg>
