<svg width="392" height="200" viewBox="0 0 392 200" fill="none" xmlns="http://www.w3.org/2000/svg">
<g clip-path="url(#clip0_16_35)">
<path d="M373.909 110.571L372.683 120.331L369.641 144.573H308.53C309.007 139.14 309.659 131.319 310.356 122.876C310.425 122.033 310.497 121.185 310.566 120.331C312.313 99.1089 314.226 75.0936 314.226 75.0936L322.26 76.5903L337.848 79.4888L344.2 80.6692L361.209 83.8365C369.689 85.4122 375.523 97.6913 373.909 110.571Z" fill="#F2F2F2"/>
<path d="M327.684 35.8219L335.199 48.9729L320.755 59.2093L314.593 43.0443L327.684 35.8219Z" fill="#FFB6B6"/>
<path d="M318.116 48.2633C328.399 48.2633 336.734 39.928 336.734 29.6458C336.734 19.3636 328.399 11.0283 318.116 11.0283C307.834 11.0283 299.499 19.3636 299.499 29.6458C299.499 39.928 307.834 48.2633 318.116 48.2633Z" fill="#FFB6B6"/>
<path d="M316.78 33.8079C315.301 31.558 315.882 30.3813 314.644 29.5544C314.644 29.5544 314.146 29.2217 310.582 29.032C309.784 23.2885 308.787 22.592 308.787 22.5919C307.639 21.7892 305.935 22.05 304.875 22.541C302.634 23.5794 302.894 25.8224 301.384 26.2517C299.299 26.8446 295.505 23.5019 295.131 19.6753C294.826 16.5538 296.837 13.5221 297.635 13.6824C298.426 13.8415 300.319 11.4241 301.342 11.4614C302.04 11.4868 304.893 10.2469 305.66 10.3438C306.498 10.4497 309.262 11.8918 309.377 11.5623C310.177 9.27282 309.942 8.63757 310.621 7.9826C311.824 6.82199 313.792 7.6302 316.88 8.06411C323.233 8.95686 324.342 6.86205 327.598 8.28193C329.243 8.99918 330.619 10.9335 333.304 14.7729C337.059 20.1423 338.937 22.827 338.949 25.9583C338.961 29.1517 337.415 28.949 336.736 33.6765C335.98 38.939 337.586 41.3453 335.831 43.055C334.475 44.3764 331.718 44.6901 330.269 43.5304C327.789 41.5449 331.035 36.7538 328.29 33.2535C326.605 31.1049 323.217 30.1488 321.665 31.2109C319.91 32.4118 320.877 35.9367 319.643 36.271C318.586 36.5573 317.037 34.2 316.78 33.8079Z" fill="#2F2E41"/>
<path d="M360.148 107.134C359.629 116.013 357.566 118.816 356.844 129.302C356.686 131.604 356.591 134.276 356.591 137.463C356.591 138.276 356.596 139.061 356.596 139.829C356.596 141.463 356.564 143.007 356.374 144.573C356.23 145.823 355.982 147.083 355.571 148.41H315.473C315.469 148.401 315.469 148.392 315.464 148.383C315.23 147.362 315.081 146.387 314.968 145.453C314.932 145.155 314.9 144.862 314.873 144.573C314.837 144.234 314.805 143.9 314.774 143.571C314.652 142.257 314.53 141.016 314.241 139.829C313.853 138.19 313.149 136.646 311.704 135.157C311.113 134.547 310.522 134.073 309.944 133.658C309.831 133.581 309.723 133.504 309.61 133.428C308.012 132.331 306.5 131.541 305.19 129.302C305.168 129.27 305.15 129.234 305.132 129.203C304.906 128.81 304.319 127.781 303.895 126.409C303.448 124.982 303.177 123.19 303.665 121.357C304.825 117.015 309.122 116.582 312.634 112.194C313.013 111.72 313.388 111.196 313.745 110.614C315.333 108.032 315.762 105.757 316.268 103.053C316.349 102.615 316.421 102.182 316.48 101.762C316.525 101.446 316.566 101.135 316.598 100.828C316.877 98.2502 316.742 96.0294 316.412 94.0433C315.338 87.5385 312.169 83.5121 314.408 77.6754C315.112 75.843 316.11 74.4661 317.116 73.288C319.247 70.7916 321.436 69.1712 321.057 65.9483C320.673 62.6982 318.209 62.2512 317.934 59.4119C317.794 57.9766 318.263 56.4643 319.143 54.9792V54.9748C321.96 50.1944 328.993 45.7932 333.462 45.9332C334.288 45.9559 335.019 46.1408 335.628 46.4974C337.836 47.7974 336.915 50.6367 340.296 54.6182C342.81 57.5748 345.654 58.7575 346.733 59.3171C351.007 61.5472 354.483 68.124 356.844 76.5335C356.862 76.5968 356.88 76.6598 356.898 76.7277C358.356 81.9955 359.386 87.9765 359.896 94.0433C360.112 96.6117 360.239 99.1938 360.266 101.749C360.288 103.789 360.243 105.559 360.148 107.134Z" fill="#099773"/>
<path d="M330.121 137.554L329.304 139.829L328.79 141.255L327.598 144.573L326.217 148.41H317.338L318.827 144.573L319.518 142.785L320.665 139.829L322.587 134.863L330.121 137.554Z" fill="#FFB6B6"/>
<path d="M356.984 75.757C356.962 76.0506 356.93 76.3755 356.898 76.7277C356.546 80.3118 355.715 86.7261 354.501 94.0433C353.86 97.9026 353.111 102.015 352.267 106.1C350.452 114.916 348.195 123.596 345.645 129.302C345.189 130.331 344.72 131.261 344.241 132.083C343.875 132.71 343.491 133.328 343.09 133.938C341.79 135.938 340.332 137.834 338.82 139.603C338.761 139.68 338.693 139.752 338.626 139.829C338.382 140.117 338.129 140.402 337.876 140.686C336.639 142.081 335.376 143.381 334.152 144.573C332.663 146.026 331.227 147.313 329.941 148.41H315.523L315.464 148.383L313.388 147.462C313.388 147.462 313.979 146.767 314.968 145.453C315.171 145.187 315.388 144.893 315.622 144.573C315.911 144.18 316.223 143.747 316.557 143.277C317.252 142.293 318.042 141.138 318.89 139.829C320.534 137.296 322.407 134.182 324.298 130.575C324.515 130.155 324.736 129.731 324.957 129.302C324.962 129.288 324.971 129.275 324.975 129.261C325.35 128.53 325.72 127.776 326.09 127.009C329.227 120.482 330.126 115.065 330.383 113.309C330.744 110.826 331.245 107.355 331.11 103.536C331.019 101.017 330.654 98.354 329.783 95.7089V95.7045C329.602 95.1493 329.399 94.5941 329.169 94.0433C328.758 93.0547 328.27 92.0796 327.693 91.1182C325.142 86.8841 323.071 86.708 321.423 82.0946C320.935 80.727 319.829 77.6395 320.168 74.3803V74.3759C320.209 73.9741 320.276 73.5679 320.367 73.1615V73.157C320.389 73.0442 320.421 72.9269 320.453 72.8141C320.71 71.8165 321.134 70.8278 321.779 69.8888C323.039 68.0654 324.758 66.9818 326.298 66.3365L326.303 66.3318C328.081 65.5917 329.616 65.4337 329.914 65.4066C336.508 64.8198 341.623 70.3629 344.417 73.3918C345.496 74.5608 346.485 75.5405 347.387 76.3393C354.415 82.6139 356.343 78.6053 356.844 76.5335C356.921 76.213 356.962 75.9377 356.984 75.757Z" fill="#099773"/>
<path d="M357.007 75.5225C357.007 75.545 357.002 75.6217 356.984 75.7482C356.993 75.6803 356.998 75.6126 357.002 75.5494C357.002 75.5359 357.002 75.5269 357.007 75.5225Z" fill="#099773"/>
<path d="M321.157 170.772H79.1845C76.9363 170.772 75.1038 172.6 75.1038 174.848C75.1038 177.101 76.9363 178.929 79.1845 178.929H321.157C323.404 178.929 325.233 177.101 325.233 174.848C325.233 172.6 323.404 170.772 321.157 170.772Z" fill="#E6E6E6"/>
<path d="M267.458 191.843H132.878C130.63 191.843 128.802 193.671 128.802 195.919C128.802 198.167 130.63 200 132.878 200H267.458C269.706 200 271.539 198.167 271.539 195.919C271.539 193.671 269.706 191.843 267.458 191.843Z" fill="#E6E6E6"/>
<path d="M106.11 36.6873L121.36 30.2694L127.901 43.6784L111.875 50.2194L106.11 36.6873Z" fill="#FFB6B6"/>
<path opacity="0.1" d="M106.11 36.6873L121.36 30.2694L127.901 43.6784L111.875 50.2194L106.11 36.6873Z" fill="black"/>
<path d="M108.278 31.5776L123.322 48.9112C123.322 48.9112 112.857 81.9431 102.391 84.8866C91.9254 87.83 72.6296 102.22 72.6296 102.22L48.428 86.5218L60.2017 69.1882C60.2017 69.1882 88.655 30.2694 96.1771 30.2694C103.699 30.2694 108.278 31.5776 108.278 31.5776Z" fill="#099773"/>
<path d="M87.9518 144.573H52.9314L50.7173 141.613L41.6777 129.529L39.5977 126.749C39.5977 126.749 31.7485 112.359 33.3837 99.2767C35.019 86.1947 52.0255 83.2513 52.0255 83.2513H52.7254L73.5453 101.546L72.3025 118.573L78.8958 129.529L87.9518 144.573Z" fill="#2F2E41"/>
<path d="M60.1036 144.573H50.7173V130.673L60.1036 144.573Z" fill="#2F2E41"/>
<path d="M262.553 123.472L261.386 129.529L258.488 144.573H200.277C200.731 141.201 201.353 136.348 202.017 131.108C202.082 130.585 202.151 130.059 202.216 129.529C203.881 116.358 205.702 101.455 205.702 101.455L213.355 102.384L228.203 104.182L234.254 104.915L250.456 106.881C258.534 107.858 264.09 115.479 262.553 123.472Z" fill="#F2F2F2"/>
<path d="M344.934 144.573H313.36C313.841 144.007 314.112 143.68 314.112 143.68L323.577 142.117L343.079 138.899C343.079 138.899 343.969 141.198 344.934 144.573Z" fill="#2F2E41"/>
<path d="M211.008 43.2287L224.739 62.647L200.788 63.3622L198.217 45.1136L211.008 43.2287Z" fill="#A0616A"/>
<path opacity="0.1" d="M211.008 43.2287L224.739 62.647L200.788 63.3622L198.217 45.1136L211.008 43.2287Z" fill="black"/>
<path d="M143.295 83.4619C141.533 78.3796 137.482 75.169 134.248 76.2907C131.014 77.4125 129.821 82.4412 131.584 87.5251C132.261 89.5656 133.416 91.4144 134.953 92.9169L142.69 114.357L152.674 110.512L143.987 89.784C144.264 87.6516 144.027 85.4838 143.295 83.4619Z" fill="#A0616A"/>
<path d="M236.238 73.5674L236.219 93.3571L234.378 100.667L230.591 115.701L227.834 129.529L225.78 139.831L225.047 143.51C224.495 143.88 223.945 144.233 223.396 144.573H175.558C172.841 142.941 171.32 141.672 171.32 141.672C171.32 141.672 172.072 140.966 172.932 139.831C174.384 137.914 176.14 134.775 175.064 131.776C174.839 131.148 174.78 130.382 174.849 129.529C175.287 123.897 181.193 114.373 181.193 114.373L179.97 100.238L179.434 94.0439L183.216 63.8408L195.542 56.6752L197.67 56.4693L218.676 55.3344L227.359 55.8348L227.754 55.9427L236.238 73.5674Z" fill="#CCCCCC"/>
<path d="M237.171 144.573H226.705L226.244 139.831L226.235 139.736L229.198 139.533L236.906 139.007L237.04 141.845L237.145 144.024L237.171 144.573Z" fill="#FFB6B6"/>
<path d="M239.747 78.3521L244.144 104.146L240.556 129.529L239.997 133.479L239.009 140.455L238.705 142.601L238.715 142.833L238.79 144.573H226.362L225.904 139.831L225.865 139.406L224.93 129.692L224.913 129.529L222.928 108.931L226.82 94.0439L227.108 92.9483V92.945L228.801 67.4548L227.49 55.8708L227.477 55.7628C227.503 55.7792 227.526 55.7956 227.552 55.8119C227.62 55.8544 227.689 55.8969 227.755 55.9427C235.394 60.7896 239.947 69.2929 239.747 78.3521Z" fill="#CCCCCC"/>
<path d="M187.668 68.7836L182.889 63.8405C182.889 63.8405 172.658 68.4526 172.148 71.0115C171.638 73.5703 153.575 111.152 153.575 111.152L145.716 90.1629L135.486 96.9926C135.486 96.9926 143.694 129.58 151.371 131.11C159.047 132.64 184.775 92.5396 184.775 92.5396L187.668 68.7836Z" fill="#CCCCCC"/>
<path d="M381.721 129.302H9.55166C4.28388 129.302 0 133.59 0 138.858C0 144.126 4.28387 148.41 9.55166 148.41H381.721C386.988 148.41 391.277 144.126 391.277 138.858C391.277 133.59 386.988 129.302 381.721 129.302Z" fill="#E6E6E6"/>
<path d="M234.06 100.183L233.337 133.949C233.266 137.218 230.597 139.831 227.327 139.831H165.214C162.022 139.831 159.386 137.336 159.212 134.148L157.366 100.383C157.178 96.9392 159.919 94.0439 163.368 94.0439H228.051C231.421 94.0439 234.132 96.8141 234.06 100.183Z" fill="#3F3D56"/>
<path d="M133.788 44.838C141.995 44.838 148.648 38.1846 148.648 29.9772C148.648 21.7697 141.995 15.1163 133.788 15.1163C125.58 15.1163 118.927 21.7697 118.927 29.9772C118.927 38.1846 125.58 44.838 133.788 44.838Z" fill="#FFB6B6"/>
<path d="M108.932 68.8612L110.567 86.5218L121.687 131.327L112.08 134.695L95.85 85.8677L93.6083 66.2448L108.932 68.8612Z" fill="#FFB6B6"/>
<path d="M104.509 100.183L103.785 133.949C103.715 137.218 101.045 139.831 97.776 139.831H35.6624C32.4704 139.831 29.8351 137.336 29.6608 134.148L27.8149 100.383C27.6267 96.9392 30.3681 94.0439 33.8165 94.0439H98.4996C101.869 94.0439 104.581 96.8141 104.509 100.183Z" fill="#3F3D56"/>
<path d="M123.457 140.059C129.939 140.059 135.194 137.735 135.194 134.868C135.194 132.001 129.939 129.677 123.457 129.677C116.976 129.677 111.721 132.001 111.721 134.868C111.721 137.735 116.976 140.059 123.457 140.059Z" fill="#FFB6B6"/>
<path d="M85.8751 71.5613L92.5796 35.8293C92.5796 35.8293 111.221 33.2129 111.875 39.4268C112.53 45.6407 111.408 76.009 111.408 76.009L85.8751 71.5613Z" fill="#099773"/>
<path d="M127.789 32.3138C127.789 32.3138 136.982 29.0329 140.859 27.2676C144.737 25.5023 152.441 37.8151 152.612 31.3123C152.784 24.8095 150.122 22.0825 150.122 22.0825C150.122 22.0825 149.457 7.85662 135.125 9.63519C135.125 9.63519 138.277 2.51783 127.929 1.41727C117.581 0.316698 101.482 25.3057 102.924 29.0402C104.366 32.7747 106.094 35.8621 102.003 39.8551C97.9129 43.8481 90.2534 66.3834 96.0811 72.4475C101.909 78.5116 102.291 81.143 98.2983 84.9156C94.3054 88.6883 84.8673 96.8914 95.0721 98.3155C105.277 99.7396 94.1385 98.6759 101.746 91.984C109.354 85.2921 120.456 85.5654 116.31 74.8288C112.165 64.0922 119.367 48.7068 118.466 46.3727C117.565 44.0387 120.485 29.2173 120.485 29.2173C120.485 29.2173 127.281 28.2189 127.789 32.3138Z" fill="#2F2E41"/>
<path d="M203.667 50.2571C212.601 50.2571 219.844 43.0144 219.844 34.08C219.844 25.1457 212.601 17.9029 203.667 17.9029C194.733 17.9029 187.49 25.1457 187.49 34.08C187.49 43.0144 194.733 50.2571 203.667 50.2571Z" fill="#A0616A"/>
<path d="M204.958 12.331C204.49 12.6043 203.863 12.1909 203.713 11.67C203.563 11.1492 203.738 10.5963 203.911 10.0827L204.784 7.49749C205.403 5.66398 206.06 3.76641 207.4 2.37088C209.424 0.264543 212.64 -0.271298 215.535 0.1169C219.252 0.615425 222.921 2.6285 224.649 5.95739C226.378 9.28628 225.642 13.9313 222.518 16.0082C226.97 21.1105 228.522 26.7969 228.277 33.5637C228.032 40.3306 220.657 46.5584 215.848 51.3254C214.775 50.6744 213.798 47.6235 214.389 46.5152C214.979 45.4069 214.133 44.1228 214.865 43.1019C215.596 42.0811 216.208 43.7066 215.468 42.6915C215.002 42.051 216.823 40.5774 216.129 40.194C212.775 38.3397 211.659 34.1583 209.552 30.9563C207.011 27.0941 202.661 24.4786 198.058 24.0446C195.523 23.8056 192.845 24.2385 190.766 25.7106C188.688 27.1826 187.343 29.8131 187.825 32.3139C186.576 31.0466 185.955 29.1893 186.189 27.4261C186.424 25.6628 187.509 24.0323 189.044 23.135C188.111 20.0468 188.911 16.4944 191.078 14.1047C193.246 11.7149 202.038 12.1219 205.203 12.7509L204.958 12.331Z" fill="#2F2E41"/>
<path d="M205.449 24.1384C209.641 24.5908 212.667 28.2213 215.222 31.5741C216.695 33.5065 218.238 35.6406 218.201 38.07C218.163 40.5263 216.521 42.633 215.736 44.9608C214.453 48.7656 215.704 53.2925 218.757 55.8995C215.74 56.4721 212.478 54.2096 211.957 51.1827C211.351 47.6591 214.022 44.2583 213.705 40.6968C213.427 37.5592 210.954 35.1444 208.852 32.7984C206.75 30.4524 204.776 27.3393 205.743 24.3414L205.449 24.1384Z" fill="#2F2E41"/>
<path d="M268.107 131.347C263.956 133.708 261.809 137.764 263.312 140.406C264.815 143.047 269.398 143.274 273.551 140.912C275.223 139.991 276.649 138.683 277.712 137.097L295.175 126.87L290.202 118.778L273.514 129.719C271.607 129.822 269.753 130.38 268.107 131.347Z" fill="#FFB6B6"/>
<path d="M327.234 56.3529C326.712 56.1461 322.133 54.4121 317.953 56.7015C313.151 59.3315 312.409 65.3352 312.149 67.4409C311.548 72.3052 313.319 73.3954 313.692 78.3199C314.391 87.533 316.235 77.0226 313.291 81.228C312.272 82.6837 301.863 105.242 296.122 109.66C284.957 118.253 277.868 124.305 277.868 124.305L285.962 133.097C285.962 133.097 298.751 129.69 310.055 122.349C321.651 114.82 327.449 111.056 331.934 103.691C332.321 103.057 341.563 87.3611 336.6 70.0055C335.467 66.0468 333.393 58.7935 327.234 56.3529Z" fill="#099773"/>
<path d="M369.028 100.183L368.305 133.949C368.235 137.218 365.565 139.831 362.295 139.831H300.182C296.99 139.831 294.355 137.336 294.18 134.148L292.334 100.383C292.146 96.9392 294.887 94.0439 298.336 94.0439H363.019C366.389 94.0439 369.1 96.8141 369.028 100.183Z" fill="#3F3D56"/>
</g>
<defs>
<clipPath id="clip0_16_35">
<rect width="391.277" height="200" fill="white"/>
</clipPath>
</defs>
</svg>
