<svg width="433" height="325" viewBox="0 0 433 325" fill="none" xmlns="http://www.w3.org/2000/svg">
<g clip-path="url(#clip0_11_2)">
<path d="M174 314C270.098 314 348 243.709 348 157C348 70.2913 270.098 0 174 0C77.9025 0 0 70.2913 0 157C0 243.709 77.9025 314 174 314Z" fill="#099773"/>
<mask id="mask0_11_2" style="mask-type:luminance" maskUnits="userSpaceOnUse" x="29" y="75" width="404" height="250">
<path d="M432.173 75H29V325H432.173V75Z" fill="white"/>
</mask>
<g mask="url(#mask0_11_2)">
<path d="M359.426 314.069L355.235 313.086L357.77 293.767L363.956 295.217L359.426 314.069Z" fill="#FFB6B6"/>
<path d="M342.878 319.051C342.695 319.755 343.046 320.455 343.663 320.615L351.932 322.761C351.932 322.761 353.594 319.701 357.278 319.155L356.292 323.893L360.558 325L361.994 317.342C361.994 317.342 364.179 313.614 362.343 310.941C360.508 308.269 362.353 309.053 362.353 309.053L362.629 304.155L355.986 303.24L354.042 310.537L349.031 316.981L343.854 318.056C343.393 318.152 343.01 318.543 342.878 319.051Z" fill="#2F2E41"/>
<path d="M399.609 309.511L395.786 311.491L385.145 295.168L390.787 292.246L399.609 309.511Z" fill="#FFB6B6"/>
<path d="M390.281 324.06C390.6 324.713 391.322 325.016 391.894 324.737L399.571 320.988C399.571 320.988 398.843 317.582 401.285 314.771L403.619 319.011L407.579 317.077L403.688 310.327C403.688 310.327 402.923 306.073 399.79 305.238C396.657 304.402 398.569 303.798 398.569 303.798L395.593 299.898L389.952 303.524L393.222 310.331L393.607 318.484L390.375 322.669C390.087 323.041 390.05 323.588 390.281 324.06Z" fill="#2F2E41"/>
<path d="M175.41 237.756H286.513C287.912 237.756 289.046 236.623 289.046 235.224V78.0064C289.046 76.6077 287.912 75.4737 286.513 75.4737H175.41C174.011 75.4737 172.877 76.6077 172.877 78.0064V235.224C172.877 236.623 174.011 237.756 175.41 237.756Z" fill="white"/>
<path d="M289.52 238.23H172.403V75H289.52V238.23ZM173.351 237.283H288.572V75.9475H173.351V237.283Z" fill="#E6E6E6"/>
<path d="M263.2 101.149C263.651 101.149 264.016 101.514 264.016 101.965V103.598C264.016 104.048 263.651 104.414 263.2 104.414H198.723C198.273 104.414 197.907 104.048 197.907 103.598V101.965C197.907 101.514 198.273 101.149 198.723 101.149H263.2Z" fill="#E6E6E6"/>
<path d="M263.2 108.902C263.651 108.902 264.016 109.268 264.016 109.718V111.351C264.016 111.802 263.651 112.167 263.2 112.167H198.723C198.273 112.167 197.907 111.802 197.907 111.351V109.718C197.907 109.268 198.273 108.902 198.723 108.902H263.2Z" fill="#E6E6E6"/>
<path d="M263.2 116.656C263.651 116.656 264.016 117.021 264.016 117.472V119.105C264.016 119.555 263.651 119.921 263.2 119.921H198.723C198.273 119.921 197.907 119.555 197.907 119.105V117.473C197.907 117.022 198.273 116.656 198.723 116.656H263.2Z" fill="#099773"/>
<path d="M381.877 136.998H403.294C403.263 135.991 403.476 134.993 403.917 134.087C403.93 135.092 404.15 136.083 404.566 136.998H405.538C407.026 136.996 408.232 135.79 408.234 134.302V120.385C408.233 113.57 402.407 103.355 396.076 107.63C395.872 107.619 392.662 106.198 392.458 106.198C386.888 106.202 384.973 111.228 383.291 116.538C381.375 115.654 380.054 119.341 379.099 125.83C378.82 127.723 378.573 129.855 378.35 132.182C377.736 134.134 378.821 136.215 380.774 136.829C381.131 136.941 381.503 136.999 381.878 136.999L381.877 136.998Z" fill="#2F2E41"/>
<path d="M339.849 216.565C338.787 219.082 339.225 221.67 340.827 222.346C342.428 223.022 344.587 221.529 345.649 219.011C346.087 218.011 346.279 216.92 346.21 215.831L350.574 205.109L345.499 203.168L341.734 213.944C340.905 214.654 340.258 215.553 339.847 216.565H339.849Z" fill="#FFB6B6"/>
<path d="M386.776 132.287L397.013 134.428L395.443 139.139L398.583 175.167L393.349 186.767L361.422 184.15L369.273 168.447C369.273 168.447 366.133 155.362 370.32 152.744C374.507 150.126 381.312 137.042 381.312 137.042L386.776 132.287Z" fill="#099773"/>
<path d="M396.319 136.512L405.388 140.184L402.247 186.242L409.051 226.02L387.069 229.684C387.069 229.684 389.686 141.754 391.256 140.184C392.826 138.613 396.319 136.509 396.319 136.509V136.512Z" fill="#2F2E41"/>
<path d="M378.557 142.256C378.557 142.256 372.656 138.522 369.468 141.287C366.279 144.051 341.734 210.875 341.734 210.875L348.354 213.752L363.538 181.915L378.557 142.256Z" fill="#2F2E41"/>
<path d="M361.652 254.846L355.666 300.868L364.04 301.392C364.04 301.392 368.394 289.51 373.362 275.515C374.419 272.547 375.502 269.485 376.576 266.418C377.737 263.09 378.894 259.761 379.993 256.547C382.709 248.623 385.091 241.411 386.452 236.7C386.687 235.873 386.896 235.125 387.069 234.465C390.731 220.396 392.826 183.63 392.826 183.63L362.469 181.013L362.145 181.416L355.666 189.513L355.969 191.224L364.04 236.493L361.654 254.848L361.652 254.846Z" fill="#2F2E41"/>
<path d="M364.039 236.492L361.652 254.848L372.387 273.747L373.36 275.516L388.141 302.376L395.442 298.236C395.442 298.236 385.943 276.405 379.991 256.547C379.332 254.365 378.719 252.203 378.17 250.099C376.553 243.938 379.201 232.696 378.165 229.597C374.664 219.14 363.253 198.22 357.957 188.742L355.967 191.223L364.039 236.492Z" fill="#2F2E41"/>
<path d="M381.444 136.647L370.845 140.709L343.105 221.836L359.854 224.453L367.705 177.347L381.444 136.647Z" fill="#2F2E41"/>
<path d="M407.948 224.217C408.217 226.935 409.838 229 411.568 228.828C413.299 228.656 414.482 226.313 414.212 223.594C414.119 222.506 413.767 221.456 413.185 220.532L411.897 209.028L406.512 209.747L408.353 221.012C407.964 222.033 407.825 223.132 407.948 224.217Z" fill="#FFB6B6"/>
<path d="M401.723 140.186C401.723 140.186 408.527 138.616 410.621 142.28C412.714 145.944 413.761 217.125 413.761 217.125L406.562 217.649L402.77 182.583L401.723 140.186Z" fill="#2F2E41"/>
<path d="M393.04 131.017C399.048 131.017 403.919 126.146 403.919 120.137C403.919 114.128 399.048 109.257 393.04 109.257C387.031 109.257 382.16 114.128 382.16 120.137C382.16 126.146 387.031 131.017 393.04 131.017Z" fill="#FFB6B6"/>
<path d="M397.407 136.997H402.78C403.053 136.997 403.285 136.787 403.298 136.514L403.299 136.484C403.329 135.915 404.126 135.82 404.311 136.358C404.386 136.575 404.471 136.788 404.566 136.997H405.094V120.224C405.094 117.347 402.762 115.015 399.885 115.015C397.429 115.015 395.306 116.73 394.791 119.132C394.791 119.132 391.14 123.611 393.292 126.129C395.444 128.647 392.313 130.696 392.313 130.696C391.618 133.939 394.09 136.997 397.407 136.997Z" fill="#2F2E41"/>
<path d="M219.261 156.535C220.466 155.758 220.721 154.094 219.877 152.933L215.926 147.497C215.004 146.226 213.225 145.943 211.954 146.866C211.841 146.948 211.735 147.038 211.636 147.135C204.946 150.711 201.345 155.934 205.349 162.108C205.348 163.139 205.424 164.169 205.573 165.189C205.638 165.632 205.787 166.065 206.04 166.434C206.79 167.531 208.113 167.933 209.277 167.554L215.739 165.454C217.112 165.008 217.855 163.509 217.348 162.158C216.692 160.411 216.962 158.018 219.261 156.535Z" fill="#F2F2F2"/>
<path d="M234.597 172.572C232.738 172.388 231.151 173.92 231.151 175.788V181.362C231.151 181.507 231.162 181.651 231.184 181.794C231.422 183.347 232.875 184.412 234.429 184.173C243.484 185.289 249.672 181.351 250.045 172.712C250.104 172.59 250.155 172.465 250.196 172.337C250.679 170.844 249.86 169.242 248.367 168.76L242.957 167.002C241.09 166.395 239.151 167.607 238.824 169.542C238.529 171.29 237.375 172.846 234.597 172.572Z" fill="#E6E6E6"/>
<path d="M201.149 178.022C203.027 189.168 212.806 193.396 223.006 194.064C223.206 194.095 223.408 194.111 223.61 194.111C225.809 194.112 227.594 192.329 227.595 190.129V180.809C227.595 178.202 225.458 176.172 222.851 176.145C220.331 176.12 218.688 174.927 218.014 172.738C217.243 170.236 214.495 168.918 212.005 169.726L203.498 172.491C202.396 172.849 201.504 173.668 201.054 174.736C200.607 175.793 200.642 176.992 201.149 178.022Z" fill="#3F3D56"/>
<path d="M253.561 139.482C251.991 137.944 249.472 137.97 247.934 139.541C247.797 139.68 247.67 139.83 247.556 139.988L239.996 150.393C239.03 151.724 239.582 153.577 241.093 154.227C244.632 155.748 244.26 159.164 243.108 161.255C242.543 162.279 243.009 163.561 244.121 163.922L256.86 168.061C258.956 168.738 261.203 167.588 261.88 165.492C261.948 165.281 261.998 165.065 262.03 164.845C262.249 163.387 262.359 161.914 262.359 160.439C264.514 152.404 261.532 144.829 253.561 139.482Z" fill="#099773"/>
<path d="M231.685 151.547C233.097 152.342 234.878 151.957 235.83 150.647L238.362 147.161C238.854 146.486 239.025 145.628 238.829 144.816C238.641 144.018 238.112 143.343 237.382 142.969C231.423 137.585 224.369 137.254 218.388 142.942C217.636 143.321 217.089 144.012 216.891 144.83C216.696 145.637 216.865 146.489 217.354 147.16L220.313 151.234C221.33 152.633 223.299 152.999 224.7 151.985C226.735 150.511 229.691 150.424 231.685 151.547Z" fill="#E6E6E6"/>
<path d="M432.173 324.172H29V324.97H432.173V324.172Z" fill="#E6E6E6"/>
<path d="M198.321 221.762C198.548 220.8 199.616 220.483 200.489 220.52C201.041 220.557 201.588 220.644 202.124 220.778C202.685 220.904 203.241 221.053 203.793 221.21C204.807 221.499 205.81 221.849 206.841 222.075C207.705 222.311 208.615 222.325 209.486 222.113C210.324 221.883 210.983 221.237 211.229 220.403C211.48 219.607 211.119 218.747 210.377 218.366C209.689 217.987 208.825 218.237 208.446 218.925C208.44 218.935 208.435 218.945 208.429 218.955C208.111 219.803 208.361 220.76 209.053 221.344C209.408 221.677 209.797 221.972 210.214 222.225C210.636 222.513 211.106 222.723 211.603 222.847C212.447 223.07 213.338 222.722 213.807 221.986C213.901 221.81 213.957 221.616 213.972 221.417C213.997 221.147 213.574 221.148 213.55 221.417C213.479 222.193 212.571 222.554 211.892 222.47C211.434 222.394 210.996 222.224 210.607 221.971C210.231 221.752 209.875 221.501 209.542 221.22C208.967 220.722 208.427 219.902 208.814 219.125C209.115 218.625 209.763 218.464 210.263 218.765C210.33 218.805 210.392 218.853 210.448 218.907C211.053 219.401 210.945 220.298 210.546 220.885C210.067 221.499 209.328 221.851 208.55 221.837C207.73 221.839 206.915 221.711 206.134 221.458C205.161 221.182 204.197 220.873 203.219 220.612C202.664 220.464 202.104 220.331 201.539 220.227C201.005 220.11 200.456 220.072 199.91 220.115C198.989 220.158 198.192 220.77 197.912 221.649C197.851 221.914 198.258 222.027 198.321 221.762Z" fill="#3F3D56"/>
<path d="M215.052 210.747C215.18 210.747 215.283 211.113 215.283 211.564V213.196C215.283 213.647 215.18 214.012 215.052 214.012H196.828C196.701 214.012 196.598 213.647 196.598 213.196V211.564C196.598 211.113 196.701 210.747 196.828 210.747H215.052Z" fill="#E6E6E6"/>
<path d="M263.786 210.747C263.913 210.747 264.016 211.113 264.016 211.564V213.196C264.016 213.647 263.913 214.012 263.786 214.012H245.562C245.434 214.012 245.331 213.647 245.331 213.196V211.564C245.331 211.113 245.434 210.747 245.562 210.747H263.786Z" fill="#E6E6E6"/>
<path d="M255.671 219.943L252.054 221.138L250.245 221.736C249.69 221.973 249.088 222.084 248.485 222.06C248.039 222.03 247.648 221.753 247.472 221.342C247.395 220.93 247.572 220.513 247.921 220.281C248.784 219.625 249.876 220.293 250.488 220.973C251.236 221.805 251.659 222.879 252.361 223.75C252.985 224.531 253.777 225.163 254.678 225.597C256.479 226.49 258.627 226.307 260.25 225.121C262.156 223.65 262.351 221.101 262.361 218.876C262.354 218.663 262.174 218.496 261.961 218.503C261.758 218.51 261.595 218.673 261.587 218.876C261.578 220.892 261.464 223.363 259.626 224.625C257.865 225.833 255.551 225.513 253.93 224.225C253.094 223.481 252.399 222.593 251.878 221.603C251.299 220.656 250.58 219.741 249.49 219.373C248.527 219.023 247.45 219.4 246.915 220.273C246.453 221.051 246.709 222.055 247.486 222.517C247.546 222.552 247.608 222.584 247.673 222.612C248.936 223.214 250.382 222.508 251.598 222.106L255.878 220.692C256.349 220.536 256.147 219.789 255.673 219.946L255.671 219.943Z" fill="#099773"/>
<path d="M94.9203 309.977C94.8731 309.936 94.8368 309.915 94.8122 309.915C94.222 309.92 93.6962 310.23 93.4063 310.742L87.0517 322.543C86.9064 322.8 86.8351 323.081 86.8375 323.362C86.84 323.642 86.9162 323.922 87.066 324.176C87.3655 324.684 101.4 324.867 101.4 324.867C101.99 324.862 103.61 317.602 94.9203 309.977Z" fill="#E6E6E6"/>
<path d="M70.6326 322.008L75.4558 321.965L77.5879 303.341L70.4692 303.404L70.6326 322.008Z" fill="#FFB6B6"/>
<path d="M87.1567 321.754C87.3091 322.006 87.3955 322.822 87.398 323.116C87.4059 324.02 86.6794 324.759 85.7753 324.767L70.8382 324.897C70.2215 324.903 69.7171 324.407 69.7117 323.79L69.7063 323.168C69.7063 323.168 68.951 321.306 70.4522 318.989C70.4522 318.989 72.3588 320.776 75.1594 317.926L75.9794 316.41L82.0488 320.768L85.3953 321.15C86.1274 321.234 86.775 321.124 87.1567 321.754Z" fill="#2F2E41"/>
<path d="M88.9822 305.929L93.565 307.433L101.55 290.473L94.7858 288.252L88.9822 305.929Z" fill="#FFB6B6"/>
<path d="M104.717 310.981C104.781 311.268 104.601 312.068 104.51 312.347C104.228 313.206 103.303 313.674 102.444 313.392L88.2516 308.732C87.6655 308.539 87.3465 307.908 87.5389 307.322L87.7329 306.731C87.7329 306.731 87.614 304.725 89.7782 303.011C89.7782 303.011 91.0119 305.315 94.5778 303.512L95.8403 302.338L100.194 308.41L103.242 309.844C103.909 310.158 104.557 310.261 104.717 310.981Z" fill="#2F2E41"/>
<path d="M95.4531 197.94L105.09 228.838L116.387 256.607L99.2629 296.565L89.7351 292.853L98.2625 258.27L83.6856 232.448L76.7968 309.964L68.4165 308.96L57.5204 216.106L59.2293 195.915L95.4531 197.94Z" fill="#2F2E41"/>
<path d="M85.5936 127.588L75.1816 125.075L72.3093 131.897C72.3093 131.897 58.2396 134.274 57.5204 145.045C57.5204 145.045 54.7163 159.183 56.5113 163.133C58.3063 167.083 62.7316 181.049 62.7316 181.049C62.7316 181.049 55.7249 198.45 57.5204 199.525C59.3159 200.601 97.7887 204.522 97.7887 202.368C97.7887 200.214 98.2279 174.62 98.2279 174.62L96.7214 135.844L87.03 132.256L85.5936 127.588Z" fill="#E6E6E6"/>
<path d="M83.8314 125.853C89.6261 125.853 94.3236 121.156 94.3236 115.361C94.3236 109.566 89.6261 104.869 83.8314 104.869C78.0367 104.869 73.3392 109.566 73.3392 115.361C73.3392 121.156 78.0367 125.853 83.8314 125.853Z" fill="#FFB6B6"/>
<path d="M76.8839 116.921C77.7213 117.379 76.9277 119.567 77.451 119.756C78.0559 119.975 80.2604 117.464 80.2867 114.652C80.2947 113.801 80.0988 113.392 80.2867 112.383C80.5327 111.064 81.2882 109.507 81.9882 109.548C82.4031 109.572 82.8085 110.158 82.8389 110.682C82.8815 111.416 82.169 111.705 82.2718 112.1C82.4676 112.853 85.4604 113.371 86.5254 112.1C87.3603 111.103 86.7191 109.354 87.0925 109.264C87.3678 109.198 87.6636 110.161 88.794 111.249C89.2198 111.659 89.8532 112.269 90.2118 112.1C90.7301 111.856 90.3529 110.138 90.4954 110.115C90.6134 110.096 90.6879 111.304 91.3461 112.383C92.1918 113.771 93.9357 114.839 94.749 114.368C95.2473 114.08 95.2865 113.277 95.3162 112.667C95.3787 111.382 97.2449 108.426 96.7613 107.052C95.7772 104.255 94.0933 106.227 93.3311 105.294C92.2993 104.031 91.3741 104.71 89.6447 103.309C87.9552 101.94 87.94 100.563 86.8089 100.473C85.7903 100.392 85.4285 101.479 84.2568 101.324C83.2642 101.193 83.0479 100.35 82.2718 100.473C81.5612 100.586 81.5146 101.328 80.5703 101.608C79.9675 101.786 79.835 101.528 79.1525 101.608C77.7323 101.773 76.7789 103.067 76.6003 103.309C75.9118 104.243 76.1792 104.637 75.466 105.578C74.851 106.389 73.4874 106.045 72.9749 106.45C71.3002 107.774 70.5812 110.214 70.5677 112.996C70.5582 114.941 70.8122 115.924 71.379 118.379C71.8094 120.244 73.801 122.652 74.8988 123.726C75.1935 124.015 76.0197 124.823 76.6003 124.577C77.1505 124.344 77.1668 123.297 77.1674 123.159C77.1697 122.684 77.0429 122.096 76.0331 120.607C74.9724 119.043 74.5512 118.865 74.6153 118.338C74.7286 117.408 76.2164 116.555 76.8839 116.921Z" fill="#2F2E41"/>
<path d="M47.2131 221.575C46.8477 224.626 48.1254 227.288 50.0669 227.52C52.0084 227.753 53.8785 225.468 54.2439 222.417C54.4038 221.081 54.2489 219.821 53.8613 218.805L55.2474 205.858L49.1577 205.337L48.4377 218.156C47.8213 219.051 47.373 220.239 47.2131 221.575Z" fill="#FFB6B6"/>
<path d="M64.7476 135.593C64.7476 135.593 61.5926 135.637 59.5022 139.716C58.3914 141.883 51.171 180.735 51.171 180.735L49.1425 193.022L50.185 195.055C48.5278 197.589 48.0715 200.725 48.9379 203.627L46.956 215.633L56.2754 215.683L63.5482 184.233L69.6634 165.994L64.7476 135.593Z" fill="#E6E6E6"/>
<path d="M112.36 221.101C112.725 224.152 111.447 226.814 109.506 227.046C107.564 227.279 105.694 224.994 105.329 221.943C105.169 220.608 105.324 219.347 105.712 218.332L104.326 205.384L110.415 204.863L111.135 217.682C111.752 218.577 112.2 219.766 112.36 221.101Z" fill="#FFB6B6"/>
<path d="M94.8252 135.119C94.8252 135.119 97.9802 135.163 100.071 139.242C101.181 141.41 108.402 180.261 108.402 180.261L110.43 192.549L109.388 194.581C111.045 197.116 111.501 200.252 110.635 203.154L112.617 215.159L103.297 215.209L96.0246 183.76L89.9094 165.52L94.8252 135.119Z" fill="#E6E6E6"/>
<path d="M379.962 118.522C380.349 119.155 382.402 116.837 385.555 116.582C386.358 116.515 388.168 119.589 390.244 119.633C391.62 119.661 392.467 119.65 394.161 119.633C396.163 119.611 396.712 119.566 397.099 119.077C397.848 118.127 397.231 116.438 397.588 116.299C397.887 116.182 398.661 117.227 399.057 118.522C399.89 121.239 396.903 125.024 396.609 128.525C396.296 132.299 399.38 125.068 399.057 128.525C398.695 132.416 397.397 132.121 397.412 133.527C397.417 133.738 397.471 133.922 397.588 134.083C397.691 134.227 397.794 134.283 399.547 134.639C401.642 135.067 402.695 135.278 402.974 135.194C403.694 134.983 404.423 133.811 404.933 132.971C405.775 131.599 405.178 132.982 404.933 131.304C404.698 129.681 403.963 129.47 403.953 127.97C403.944 126.08 405.104 125.508 405.912 123.523C407.405 119.855 405.946 115.609 405.422 114.076C405.171 113.34 404.714 112.409 403.914 110.871C403.272 109.636 402.42 108.548 401.381 107.733C399.823 106.511 398.014 105.674 396.057 105.343C394.986 105.161 393.893 105.256 392.84 105.544L390.111 106.288C388.964 106.601 387.883 107.168 386.929 107.956C386.041 107.96 385.27 108.612 384.965 109.559C384.934 109.658 384.905 109.716 384.881 109.707C379.962 107.962 379.965 113.131 380.019 116.361C380.025 116.691 380.014 116.984 379.977 117.221V117.238C379.879 117.877 379.854 118.344 379.962 118.522Z" fill="#2F2E41"/>
<path d="M316.021 147.07H264.237V148.017H316.021V147.07Z" fill="#3F3D56"/>
<path d="M326.443 153.688C322.786 153.688 319.811 150.713 319.811 147.056C319.811 143.399 322.786 140.424 326.443 140.424C330.101 140.424 333.076 143.399 333.076 147.056C333.076 150.713 330.101 153.688 326.443 153.688ZM326.443 141.371C323.309 141.371 320.758 143.921 320.758 147.056C320.758 150.191 323.309 152.741 326.443 152.741C329.578 152.741 332.128 150.191 332.128 147.056C332.128 143.921 329.578 141.371 326.443 141.371Z" fill="#3F3D56"/>
<path d="M326.443 150.372C328.275 150.372 329.76 148.887 329.76 147.056C329.76 145.224 328.275 143.74 326.443 143.74C324.612 143.74 323.127 145.224 323.127 147.056C323.127 148.887 324.612 150.372 326.443 150.372Z" fill="#099773"/>
<path d="M197.73 182.127H145.947V183.074H197.73V182.127Z" fill="#3F3D56"/>
<path d="M128.892 182.113C128.892 178.456 131.867 175.481 135.524 175.481C139.181 175.481 142.157 178.456 142.157 182.113C142.157 185.77 139.181 188.745 135.524 188.745C131.867 188.745 128.892 185.77 128.892 182.113ZM129.839 182.113C129.839 185.248 132.39 187.798 135.524 187.798C138.659 187.798 141.209 185.248 141.209 182.113C141.209 178.978 138.659 176.428 135.524 176.428C132.39 176.428 129.839 178.978 129.839 182.113Z" fill="#3F3D56"/>
<path d="M135.524 185.429C137.356 185.429 138.84 183.945 138.84 182.113C138.84 180.282 137.356 178.797 135.524 178.797C133.693 178.797 132.208 180.282 132.208 182.113C132.208 183.945 133.693 185.429 135.524 185.429Z" fill="#099773"/>
</g>
</g>
<defs>
<clipPath id="clip0_11_2">
<rect width="433" height="325" fill="white"/>
</clipPath>
</defs>
</svg>
