<svg width="798" height="832" viewBox="0 0 798 832" fill="none" xmlns="http://www.w3.org/2000/svg">
<rect x="362" y="564" width="487" height="363" fill="#099773"/>
<path fill-rule="evenodd" clip-rule="evenodd" d="M6.97849 831.507L26.7775 820.193C46.5765 808.879 86.8816 785.545 139.207 775.645C192.24 765.039 257.294 767.867 276.386 723.319C294.771 679.479 267.194 588.262 285.579 544.421C303.963 500.581 369.724 502.702 434.778 505.53C500.539 507.652 565.593 510.48 588.927 470.175C611.555 430.577 592.463 347.846 602.362 295.52C612.262 243.194 652.567 219.859 704.893 209.96C757.926 199.353 822.98 202.182 863.285 178.847C902.883 156.22 917.732 107.429 924.803 83.3877L931.874 59.346L1033.7 161.169L1018.14 176.726C1002.58 192.282 970.765 224.102 939.652 255.215C907.833 287.034 876.72 318.147 844.9 349.967C813.787 381.08 781.968 412.899 750.855 444.012C719.742 475.125 687.922 506.945 656.81 538.057C624.99 569.877 593.877 600.99 562.057 632.81C530.945 663.922 499.125 695.742 468.012 726.855C436.899 757.968 405.08 789.787 373.967 820.9C342.147 852.72 311.034 883.833 279.215 915.652C248.102 946.765 216.282 978.585 200.726 994.141L185.169 1009.7L6.97849 831.507Z" fill="#099773"/>
<rect x="625" y="352" width="224" height="269" fill="#099773"/>
<g clip-path="url(#clip0_6_39)">
<path d="M398 713.669C398 714.03 398.29 714.32 398.651 714.32H797.349C797.71 714.32 798 714.03 798 713.669C798 713.308 797.71 713.019 797.349 713.019H398.651C398.29 713.019 398 713.308 398 713.669Z" fill="#3F3D56"/>
<path d="M653.298 575.614L655.39 602.375L685.708 589.711L668.605 562.493L653.298 575.614Z" fill="#A0616A"/>
<path d="M652.39 583.767C664.871 583.767 674.989 573.648 674.989 561.167C674.989 548.686 664.871 538.567 652.39 538.567C639.908 538.567 629.79 548.686 629.79 561.167C629.79 573.648 639.908 583.767 652.39 583.767Z" fill="#A0616A"/>
<path d="M610.109 771.877L613.936 806.202L587.148 802.492L595.895 770.784L610.109 771.877Z" fill="#A0616A"/>
<path d="M714.528 776.797L718.355 811.123L691.567 807.412L700.314 775.704L714.528 776.797Z" fill="#A0616A"/>
<path d="M650.838 673.199C650.472 673.199 621.237 674.666 601.921 675.638C592.779 676.098 585.82 684.011 586.529 693.137L593.435 781.991L613.116 782.537L613.596 710.92L652.478 713.107L650.838 673.199Z" fill="#2F2E41"/>
<path d="M736.669 672.652C736.669 672.652 741.589 710.374 737.762 714.201C733.935 718.027 613.936 711.194 613.936 711.194C613.936 711.194 640.261 673.178 645.003 672.095C649.744 671.012 725.188 667.185 725.188 667.185L736.669 672.652Z" fill="#2F2E41"/>
<path d="M581.212 625.159C576.642 618.768 576.236 611.229 580.303 608.322C584.371 605.414 591.372 608.238 595.943 614.633C597.804 617.162 599.032 620.1 599.524 623.201L618.545 650.525L607.72 658.019L588.163 631.322C585.387 629.852 583.003 627.739 581.212 625.159Z" fill="#A0616A"/>
<path d="M652.205 592.561L680.086 581.08L732.569 661.991C732.569 661.991 695.94 670.192 683.366 671.832C670.792 673.472 656.578 666.912 656.578 666.912L652.205 592.561Z" fill="#099773"/>
<path d="M686.1 606.228L675.986 574.679L689.106 584.634C689.106 584.634 726.282 609.235 726.282 619.622C726.282 630.01 737.762 661.718 737.762 661.718C737.762 661.718 750.61 672.378 746.236 682.219C741.862 692.059 751.976 690.693 753.07 697.8C754.163 704.907 737.489 714.474 737.489 714.474C737.489 714.474 733.389 674.292 720.268 674.292C707.147 674.292 686.1 606.228 686.1 606.228Z" fill="#3F3D56"/>
<path d="M654.164 591.754L640.451 597.208C640.451 597.208 642.637 635.477 644.824 638.757C647.011 642.037 654.665 659.531 654.665 659.531V665.233C654.665 665.233 639.357 669.918 639.904 672.652C640.451 675.385 675.986 683.039 675.986 683.039C675.986 683.039 668.879 661.171 664.505 654.064C660.132 646.957 654.164 591.754 654.164 591.754Z" fill="#3F3D56"/>
<path d="M645.371 597.208C645.371 597.208 629.517 595.021 626.783 613.609C624.05 632.196 625.787 634.657 625.787 634.657L621.316 645.317L606.556 628.916L592.341 638.21C592.341 638.21 618.036 679.759 628.423 678.665C638.811 677.572 654.118 647.504 654.118 647.504L645.371 597.208Z" fill="#3F3D56"/>
<path d="M724.553 678.687L716.441 793.471L695.393 792.651C695.393 792.651 690.746 684.132 690.746 682.492C690.746 680.852 692.933 671.558 706.601 671.012C720.268 670.465 724.553 678.687 724.553 678.687Z" fill="#2F2E41"/>
<path d="M694.027 795.658C694.027 795.658 704.961 792.378 706.601 794.565C708.241 796.752 717.535 797.845 717.535 797.845L720.268 824.633C720.268 824.633 712.614 830.1 711.521 831.193C710.428 832.287 681.453 833.38 680.906 826.82C680.359 820.259 688.56 812.059 688.56 812.059L694.027 795.658Z" fill="#2F2E41"/>
<path d="M613.663 788.004C613.663 788.004 616.943 785.271 618.036 792.925C619.13 800.578 622.956 813.152 617.489 814.792C612.022 816.432 557.353 816.979 557.353 812.059V807.139L562.273 803.312L572.116 801.743C572.116 801.743 591.248 784.178 593.435 784.178C595.622 784.178 602.729 791.285 602.729 791.285L613.663 788.004Z" fill="#2F2E41"/>
<path d="M674.619 573.427C674.619 573.427 663.685 560.306 659.312 561.399C654.938 562.493 657.671 564.133 657.671 564.133L646.738 552.106C646.738 552.106 637.99 548.826 629.79 559.213C629.79 559.213 624.87 550.466 629.79 545.545C634.71 540.625 636.35 541.172 637.444 538.438C638.537 535.705 646.191 533.518 646.191 533.518C646.191 533.518 645.752 529.584 648.158 531.551C650.564 533.518 656.574 533.518 656.574 533.518C656.574 533.518 656.608 531.331 659.053 533.518C661.498 535.705 664.232 534.611 664.232 534.611C664.232 534.611 664.232 538.395 666.145 538.417C668.059 538.438 671.339 535.705 671.886 537.892C672.432 540.078 676.259 541.172 676.806 547.732C677.352 554.292 674.619 573.427 674.619 573.427Z" fill="#2F2E41"/>
<path d="M585.513 628.776L523.061 671.87C520.906 673.357 517.943 672.814 516.456 670.659L498.873 645.178C497.386 643.023 497.929 640.059 500.085 638.572L562.537 595.478C564.692 593.991 567.655 594.534 569.142 596.69L586.725 622.17C588.212 624.325 587.668 627.289 585.513 628.776Z" fill="white"/>
<path d="M569.027 596.769L586.61 622.249C588.057 624.346 587.531 627.214 585.434 628.661L554.784 649.81C546.701 647.602 539.325 642.64 534.194 635.205C530.833 630.334 528.808 624.942 528.035 619.455L562.616 595.593C564.713 594.146 567.581 594.672 569.027 596.769Z" fill="#E6E6E6"/>
<path d="M520.372 673.255C518.689 673.255 517.032 672.456 516.006 670.969L498.423 645.488C497.621 644.325 497.32 642.919 497.575 641.526C497.831 640.133 498.612 638.924 499.774 638.122L562.226 595.028C564.63 593.37 567.934 593.977 569.592 596.379L587.175 621.86C587.977 623.023 588.278 624.429 588.022 625.822C587.767 627.215 586.986 628.424 585.824 629.226L523.372 672.32C522.455 672.952 521.408 673.255 520.372 673.255ZM565.227 595.186C564.405 595.186 563.574 595.427 562.848 595.928L500.395 639.022C499.473 639.658 498.854 640.618 498.651 641.723C498.448 642.828 498.686 643.945 499.323 644.867L516.906 670.348C518.221 672.254 520.843 672.736 522.75 671.42L585.203 628.326C586.125 627.69 586.744 626.73 586.947 625.625C587.15 624.52 586.911 623.403 586.275 622.481L568.692 597C567.878 595.82 566.563 595.186 565.227 595.186Z" fill="#3F3D56"/>
<path d="M520.824 660.532C519.241 661.624 518.842 663.801 519.934 665.383C521.026 666.966 523.203 667.365 524.785 666.273L531.215 661.836C532.798 660.744 533.197 658.568 532.105 656.985C531.013 655.402 528.837 655.003 527.254 656.095L520.824 660.532Z" fill="#099773"/>
<path d="M525.182 624.983C522.685 626.706 522.055 630.14 523.779 632.637C525.502 635.134 528.935 635.764 531.433 634.041L541.435 627.139C543.932 625.416 544.562 621.982 542.838 619.485C541.115 616.988 537.682 616.358 535.184 618.081L525.182 624.983Z" fill="#099773"/>
<path d="M584.018 632.581H508.14C505.522 632.581 503.392 630.45 503.392 627.832V596.874C503.392 594.255 505.522 592.125 508.14 592.125H584.018C586.636 592.125 588.767 594.255 588.767 596.874V627.832C588.767 630.45 586.636 632.581 584.018 632.581Z" fill="white"/>
<path d="M588.627 596.874V627.832C588.627 630.379 586.565 632.441 584.018 632.441H546.779C541.381 626.032 538.128 617.76 538.128 608.726C538.128 602.808 539.523 597.22 542.003 592.265H584.018C586.565 592.265 588.627 594.327 588.627 596.874Z" fill="#E6E6E6"/>
<path d="M584.018 633.127H508.14C505.221 633.127 502.845 630.752 502.845 627.832V596.874C502.845 593.954 505.221 591.579 508.14 591.579H584.018C586.938 591.579 589.313 593.954 589.313 596.874V627.832C589.313 630.752 586.938 633.127 584.018 633.127ZM508.14 592.672C505.823 592.672 503.938 594.557 503.938 596.874V627.832C503.938 630.149 505.823 632.034 508.14 632.034H584.018C586.335 632.034 588.22 630.149 588.22 627.832V596.874C588.22 594.557 586.335 592.672 584.018 592.672H508.14Z" fill="#3F3D56"/>
<path d="M512.738 621.979C510.815 621.979 509.251 623.543 509.251 625.466C509.251 627.389 510.815 628.954 512.738 628.954H520.55C522.473 628.954 524.038 627.389 524.038 625.466C524.038 623.543 522.473 621.979 520.55 621.979H512.738Z" fill="#099773"/>
<path d="M536.515 595.194C533.481 595.194 531.013 597.663 531.013 600.697C531.013 603.731 533.481 606.199 536.515 606.199H548.668C551.702 606.199 554.17 603.731 554.17 600.697C554.17 597.663 551.702 595.194 548.668 595.194H536.515Z" fill="#099773"/>
<path d="M647.434 739.733H571.557C568.939 739.733 566.808 737.603 566.808 734.984V704.026C566.808 701.407 568.939 699.277 571.557 699.277H647.434C650.053 699.277 652.183 701.407 652.183 704.026V734.984C652.183 737.603 650.053 739.733 647.434 739.733Z" fill="white"/>
<path d="M652.044 704.026V734.984C652.044 737.531 649.982 739.593 647.434 739.593H610.196C604.797 733.184 601.544 724.912 601.544 715.878C601.544 709.96 602.939 704.372 605.419 699.417H647.434C649.982 699.417 652.044 701.479 652.044 704.026Z" fill="#E6E6E6"/>
<path d="M647.434 740.279H571.557C568.637 740.279 566.261 737.904 566.261 734.984V704.026C566.261 701.106 568.637 698.731 571.557 698.731H647.434C650.354 698.731 652.73 701.106 652.73 704.026V734.984C652.73 737.904 650.354 740.279 647.434 740.279ZM571.557 699.824C569.24 699.824 567.355 701.709 567.355 704.026V734.984C567.355 737.301 569.24 739.186 571.557 739.186H647.434C649.751 739.186 651.637 737.301 651.637 734.984V704.026C651.637 701.709 649.751 699.824 647.434 699.824H571.557Z" fill="#3F3D56"/>
<path d="M576.155 729.131C574.232 729.131 572.667 730.695 572.667 732.618C572.667 734.541 574.232 736.106 576.155 736.106H583.967C585.89 736.106 587.454 734.541 587.454 732.618C587.454 730.695 585.89 729.131 583.967 729.131H576.155Z" fill="#099773"/>
<path d="M599.932 702.346C596.898 702.346 594.43 704.815 594.43 707.849C594.43 710.883 596.898 713.351 599.932 713.351H612.084C615.118 713.351 617.587 710.883 617.587 707.849C617.587 704.815 615.118 702.346 612.084 702.346H599.932Z" fill="#099773"/>
<path d="M652.581 711.965C645.613 715.594 638.091 714.939 635.783 710.504C633.474 706.069 637.252 699.533 644.224 695.904C646.989 694.416 650.07 693.612 653.21 693.559L682.931 678.557L688.834 690.325L659.658 705.947C657.814 708.489 655.387 710.553 652.581 711.965Z" fill="#A0616A"/>
<path d="M686.373 584.087C686.373 584.087 716.988 582.447 723.548 598.848C730.109 615.249 735.575 668.825 735.575 668.825L668.879 705.111L657.398 687.413L702.227 652.424L686.373 584.087Z" fill="#3F3D56"/>
</g>
<defs>
<clipPath id="clip0_6_39">
<rect width="400" height="301.02" fill="white" transform="translate(398 531)"/>
</clipPath>
</defs>
</svg>
